<?xml version="1.0" encoding="utf-8" standalone="no"?>
<!DOCTYPE svg PUBLIC "-//W3C//DTD SVG 1.1//EN"
  "http://www.w3.org/Graphics/SVG/1.1/DTD/svg11.dtd">
<svg xmlns:xlink="http://www.w3.org/1999/xlink" width="460.8pt" height="345.6pt" viewBox="0 0 460.8 345.6" xmlns="http://www.w3.org/2000/svg" version="1.1">
 <metadata>
  <rdf:RDF xmlns:dc="http://purl.org/dc/elements/1.1/" xmlns:cc="http://creativecommons.org/ns#" xmlns:rdf="http://www.w3.org/1999/02/22-rdf-syntax-ns#">
   <cc:Work>
    <dc:type rdf:resource="http://purl.org/dc/dcmitype/StillImage"/>
    <dc:date>2023-09-07T12:10:50.940619</dc:date>
    <dc:format>image/svg+xml</dc:format>
    <dc:creator>
     <cc:Agent>
      <dc:title>Matplotlib v3.7.1, https://matplotlib.org/</dc:title>
     </cc:Agent>
    </dc:creator>
   </cc:Work>
  </rdf:RDF>
 </metadata>
 <defs>
  <style type="text/css">*{stroke-linejoin: round; stroke-linecap: butt}</style>
 </defs>
 <g id="figure_1">
  <g id="patch_1">
   <path d="M 0 345.6 
L 460.8 345.6 
L 460.8 0 
L 0 0 
z
" style="fill: #ffffff"/>
  </g>
  <g id="axes_1">
   <g id="patch_2">
    <path d="M 57.6 307.584 
L 414.72 307.584 
L 414.72 41.472 
L 57.6 41.472 
z
" style="fill: #ffffff"/>
   </g>
   <g id="matplotlib.axis_1">
    <g id="xtick_1">
     <g id="line2d_1">
      <defs>
       <path id="m3fc5b8a997" d="M 0 0 
L 0 3.5 
" style="stroke: #000000; stroke-width: 0.8"/>
      </defs>
      <g>
       <use xlink:href="#m3fc5b8a997" x="106.298182" y="307.584" style="stroke: #000000; stroke-width: 0.8"/>
      </g>
     </g>
     <g id="text_1">
      <!-- −4 -->
      <g transform="translate(98.927088 322.182437) scale(0.1 -0.1)">
       <defs>
        <path id="DejaVuSans-2212" d="M 678 2272 
L 4684 2272 
L 4684 1741 
L 678 1741 
L 678 2272 
z
" transform="scale(0.015625)"/>
        <path id="DejaVuSans-34" d="M 2419 4116 
L 825 1625 
L 2419 1625 
L 2419 4116 
z
M 2253 4666 
L 3047 4666 
L 3047 1625 
L 3713 1625 
L 3713 1100 
L 3047 1100 
L 3047 0 
L 2419 0 
L 2419 1100 
L 313 1100 
L 313 1709 
L 2253 4666 
z
" transform="scale(0.015625)"/>
       </defs>
       <use xlink:href="#DejaVuSans-2212"/>
       <use xlink:href="#DejaVuSans-34" x="83.789062"/>
      </g>
     </g>
    </g>
    <g id="xtick_2">
     <g id="line2d_2">
      <g>
       <use xlink:href="#m3fc5b8a997" x="171.229091" y="307.584" style="stroke: #000000; stroke-width: 0.8"/>
      </g>
     </g>
     <g id="text_2">
      <!-- −2 -->
      <g transform="translate(163.857997 322.182437) scale(0.1 -0.1)">
       <defs>
        <path id="DejaVuSans-32" d="M 1228 531 
L 3431 531 
L 3431 0 
L 469 0 
L 469 531 
Q 828 903 1448 1529 
Q 2069 2156 2228 2338 
Q 2531 2678 2651 2914 
Q 2772 3150 2772 3378 
Q 2772 3750 2511 3984 
Q 2250 4219 1831 4219 
Q 1534 4219 1204 4116 
Q 875 4013 500 3803 
L 500 4441 
Q 881 4594 1212 4672 
Q 1544 4750 1819 4750 
Q 2544 4750 2975 4387 
Q 3406 4025 3406 3419 
Q 3406 3131 3298 2873 
Q 3191 2616 2906 2266 
Q 2828 2175 2409 1742 
Q 1991 1309 1228 531 
z
" transform="scale(0.015625)"/>
       </defs>
       <use xlink:href="#DejaVuSans-2212"/>
       <use xlink:href="#DejaVuSans-32" x="83.789062"/>
      </g>
     </g>
    </g>
    <g id="xtick_3">
     <g id="line2d_3">
      <g>
       <use xlink:href="#m3fc5b8a997" x="236.16" y="307.584" style="stroke: #000000; stroke-width: 0.8"/>
      </g>
     </g>
     <g id="text_3">
      <!-- 0 -->
      <g transform="translate(232.97875 322.182437) scale(0.1 -0.1)">
       <defs>
        <path id="DejaVuSans-30" d="M 2034 4250 
Q 1547 4250 1301 3770 
Q 1056 3291 1056 2328 
Q 1056 1369 1301 889 
Q 1547 409 2034 409 
Q 2525 409 2770 889 
Q 3016 1369 3016 2328 
Q 3016 3291 2770 3770 
Q 2525 4250 2034 4250 
z
M 2034 4750 
Q 2819 4750 3233 4129 
Q 3647 3509 3647 2328 
Q 3647 1150 3233 529 
Q 2819 -91 2034 -91 
Q 1250 -91 836 529 
Q 422 1150 422 2328 
Q 422 3509 836 4129 
Q 1250 4750 2034 4750 
z
" transform="scale(0.015625)"/>
       </defs>
       <use xlink:href="#DejaVuSans-30"/>
      </g>
     </g>
    </g>
    <g id="xtick_4">
     <g id="line2d_4">
      <g>
       <use xlink:href="#m3fc5b8a997" x="301.090909" y="307.584" style="stroke: #000000; stroke-width: 0.8"/>
      </g>
     </g>
     <g id="text_4">
      <!-- 2 -->
      <g transform="translate(297.909659 322.182437) scale(0.1 -0.1)">
       <use xlink:href="#DejaVuSans-32"/>
      </g>
     </g>
    </g>
    <g id="xtick_5">
     <g id="line2d_5">
      <g>
       <use xlink:href="#m3fc5b8a997" x="366.021818" y="307.584" style="stroke: #000000; stroke-width: 0.8"/>
      </g>
     </g>
     <g id="text_5">
      <!-- 4 -->
      <g transform="translate(362.840568 322.182437) scale(0.1 -0.1)">
       <use xlink:href="#DejaVuSans-34"/>
      </g>
     </g>
    </g>
    <g id="text_6">
     <!-- x -->
     <g transform="translate(233.200625 335.860562) scale(0.1 -0.1)">
      <defs>
       <path id="DejaVuSans-78" d="M 3513 3500 
L 2247 1797 
L 3578 0 
L 2900 0 
L 1881 1375 
L 863 0 
L 184 0 
L 1544 1831 
L 300 3500 
L 978 3500 
L 1906 2253 
L 2834 3500 
L 3513 3500 
z
" transform="scale(0.015625)"/>
      </defs>
      <use xlink:href="#DejaVuSans-78"/>
     </g>
    </g>
   </g>
   <g id="matplotlib.axis_2">
    <g id="ytick_1">
     <g id="line2d_6">
      <defs>
       <path id="m833e710863" d="M 0 0 
L -3.5 0 
" style="stroke: #000000; stroke-width: 0.8"/>
      </defs>
      <g>
       <use xlink:href="#m833e710863" x="57.6" y="295.488" style="stroke: #000000; stroke-width: 0.8"/>
      </g>
     </g>
     <g id="text_7">
      <!-- −1.00 -->
      <g transform="translate(19.954687 299.287219) scale(0.1 -0.1)">
       <defs>
        <path id="DejaVuSans-31" d="M 794 531 
L 1825 531 
L 1825 4091 
L 703 3866 
L 703 4441 
L 1819 4666 
L 2450 4666 
L 2450 531 
L 3481 531 
L 3481 0 
L 794 0 
L 794 531 
z
" transform="scale(0.015625)"/>
        <path id="DejaVuSans-2e" d="M 684 794 
L 1344 794 
L 1344 0 
L 684 0 
L 684 794 
z
" transform="scale(0.015625)"/>
       </defs>
       <use xlink:href="#DejaVuSans-2212"/>
       <use xlink:href="#DejaVuSans-31" x="83.789062"/>
       <use xlink:href="#DejaVuSans-2e" x="147.412109"/>
       <use xlink:href="#DejaVuSans-30" x="179.199219"/>
       <use xlink:href="#DejaVuSans-30" x="242.822266"/>
      </g>
     </g>
    </g>
    <g id="ytick_2">
     <g id="line2d_7">
      <g>
       <use xlink:href="#m833e710863" x="57.6" y="265.248" style="stroke: #000000; stroke-width: 0.8"/>
      </g>
     </g>
     <g id="text_8">
      <!-- −0.75 -->
      <g transform="translate(19.954687 269.047219) scale(0.1 -0.1)">
       <defs>
        <path id="DejaVuSans-37" d="M 525 4666 
L 3525 4666 
L 3525 4397 
L 1831 0 
L 1172 0 
L 2766 4134 
L 525 4134 
L 525 4666 
z
" transform="scale(0.015625)"/>
        <path id="DejaVuSans-35" d="M 691 4666 
L 3169 4666 
L 3169 4134 
L 1269 4134 
L 1269 2991 
Q 1406 3038 1543 3061 
Q 1681 3084 1819 3084 
Q 2600 3084 3056 2656 
Q 3513 2228 3513 1497 
Q 3513 744 3044 326 
Q 2575 -91 1722 -91 
Q 1428 -91 1123 -41 
Q 819 9 494 109 
L 494 744 
Q 775 591 1075 516 
Q 1375 441 1709 441 
Q 2250 441 2565 725 
Q 2881 1009 2881 1497 
Q 2881 1984 2565 2268 
Q 2250 2553 1709 2553 
Q 1456 2553 1204 2497 
Q 953 2441 691 2322 
L 691 4666 
z
" transform="scale(0.015625)"/>
       </defs>
       <use xlink:href="#DejaVuSans-2212"/>
       <use xlink:href="#DejaVuSans-30" x="83.789062"/>
       <use xlink:href="#DejaVuSans-2e" x="147.412109"/>
       <use xlink:href="#DejaVuSans-37" x="179.199219"/>
       <use xlink:href="#DejaVuSans-35" x="242.822266"/>
      </g>
     </g>
    </g>
    <g id="ytick_3">
     <g id="line2d_8">
      <g>
       <use xlink:href="#m833e710863" x="57.6" y="235.008" style="stroke: #000000; stroke-width: 0.8"/>
      </g>
     </g>
     <g id="text_9">
      <!-- −0.50 -->
      <g transform="translate(19.954687 238.807219) scale(0.1 -0.1)">
       <use xlink:href="#DejaVuSans-2212"/>
       <use xlink:href="#DejaVuSans-30" x="83.789062"/>
       <use xlink:href="#DejaVuSans-2e" x="147.412109"/>
       <use xlink:href="#DejaVuSans-35" x="179.199219"/>
       <use xlink:href="#DejaVuSans-30" x="242.822266"/>
      </g>
     </g>
    </g>
    <g id="ytick_4">
     <g id="line2d_9">
      <g>
       <use xlink:href="#m833e710863" x="57.6" y="204.768" style="stroke: #000000; stroke-width: 0.8"/>
      </g>
     </g>
     <g id="text_10">
      <!-- −0.25 -->
      <g transform="translate(19.954687 208.567219) scale(0.1 -0.1)">
       <use xlink:href="#DejaVuSans-2212"/>
       <use xlink:href="#DejaVuSans-30" x="83.789062"/>
       <use xlink:href="#DejaVuSans-2e" x="147.412109"/>
       <use xlink:href="#DejaVuSans-32" x="179.199219"/>
       <use xlink:href="#DejaVuSans-35" x="242.822266"/>
      </g>
     </g>
    </g>
    <g id="ytick_5">
     <g id="line2d_10">
      <g>
       <use xlink:href="#m833e710863" x="57.6" y="174.528" style="stroke: #000000; stroke-width: 0.8"/>
      </g>
     </g>
     <g id="text_11">
      <!-- 0.00 -->
      <g transform="translate(28.334375 178.327219) scale(0.1 -0.1)">
       <use xlink:href="#DejaVuSans-30"/>
       <use xlink:href="#DejaVuSans-2e" x="63.623047"/>
       <use xlink:href="#DejaVuSans-30" x="95.410156"/>
       <use xlink:href="#DejaVuSans-30" x="159.033203"/>
      </g>
     </g>
    </g>
    <g id="ytick_6">
     <g id="line2d_11">
      <g>
       <use xlink:href="#m833e710863" x="57.6" y="144.288" style="stroke: #000000; stroke-width: 0.8"/>
      </g>
     </g>
     <g id="text_12">
      <!-- 0.25 -->
      <g transform="translate(28.334375 148.087219) scale(0.1 -0.1)">
       <use xlink:href="#DejaVuSans-30"/>
       <use xlink:href="#DejaVuSans-2e" x="63.623047"/>
       <use xlink:href="#DejaVuSans-32" x="95.410156"/>
       <use xlink:href="#DejaVuSans-35" x="159.033203"/>
      </g>
     </g>
    </g>
    <g id="ytick_7">
     <g id="line2d_12">
      <g>
       <use xlink:href="#m833e710863" x="57.6" y="114.048" style="stroke: #000000; stroke-width: 0.8"/>
      </g>
     </g>
     <g id="text_13">
      <!-- 0.50 -->
      <g transform="translate(28.334375 117.847219) scale(0.1 -0.1)">
       <use xlink:href="#DejaVuSans-30"/>
       <use xlink:href="#DejaVuSans-2e" x="63.623047"/>
       <use xlink:href="#DejaVuSans-35" x="95.410156"/>
       <use xlink:href="#DejaVuSans-30" x="159.033203"/>
      </g>
     </g>
    </g>
    <g id="ytick_8">
     <g id="line2d_13">
      <g>
       <use xlink:href="#m833e710863" x="57.6" y="83.808" style="stroke: #000000; stroke-width: 0.8"/>
      </g>
     </g>
     <g id="text_14">
      <!-- 0.75 -->
      <g transform="translate(28.334375 87.607219) scale(0.1 -0.1)">
       <use xlink:href="#DejaVuSans-30"/>
       <use xlink:href="#DejaVuSans-2e" x="63.623047"/>
       <use xlink:href="#DejaVuSans-37" x="95.410156"/>
       <use xlink:href="#DejaVuSans-35" x="159.033203"/>
      </g>
     </g>
    </g>
    <g id="ytick_9">
     <g id="line2d_14">
      <g>
       <use xlink:href="#m833e710863" x="57.6" y="53.568" style="stroke: #000000; stroke-width: 0.8"/>
      </g>
     </g>
     <g id="text_15">
      <!-- 1.00 -->
      <g transform="translate(28.334375 57.367219) scale(0.1 -0.1)">
       <use xlink:href="#DejaVuSans-31"/>
       <use xlink:href="#DejaVuSans-2e" x="63.623047"/>
       <use xlink:href="#DejaVuSans-30" x="95.410156"/>
       <use xlink:href="#DejaVuSans-30" x="159.033203"/>
      </g>
     </g>
    </g>
    <g id="text_16">
     <!-- y -->
     <g transform="translate(13.875 177.487375) rotate(-90) scale(0.1 -0.1)">
      <defs>
       <path id="DejaVuSans-79" d="M 2059 -325 
Q 1816 -950 1584 -1140 
Q 1353 -1331 966 -1331 
L 506 -1331 
L 506 -850 
L 844 -850 
Q 1081 -850 1212 -737 
Q 1344 -625 1503 -206 
L 1606 56 
L 191 3500 
L 800 3500 
L 1894 763 
L 2988 3500 
L 3597 3500 
L 2059 -325 
z
" transform="scale(0.015625)"/>
      </defs>
      <use xlink:href="#DejaVuSans-79"/>
     </g>
    </g>
   </g>
   <g id="line2d_15">
    <path d="M 73.832727 295.477017 
L 77.112066 295.474559 
L 80.391405 295.47155 
L 83.670744 295.467867 
L 86.950083 295.463361 
L 90.229421 295.457845 
L 93.50876 295.451096 
L 96.788099 295.442835 
L 100.067438 295.432726 
L 103.346777 295.420356 
L 106.626116 295.405217 
L 109.905455 295.386692 
L 113.184793 295.364023 
L 116.464132 295.336286 
L 119.743471 295.302347 
L 123.02281 295.260824 
L 126.302149 295.210024 
L 129.581488 295.14788 
L 132.860826 295.071867 
L 136.140165 294.978902 
L 139.419504 294.865223 
L 142.698843 294.726239 
L 145.978182 294.556358 
L 149.257521 294.348771 
L 152.53686 294.095197 
L 155.816198 293.785581 
L 159.095537 293.407733 
L 162.374876 292.94691 
L 165.654215 292.385325 
L 168.933554 291.701592 
L 172.212893 290.8701 
L 175.492231 289.860327 
L 178.77157 288.636128 
L 182.050909 287.155018 
L 185.330248 285.367533 
L 188.609587 283.216763 
L 191.888926 280.638199 
L 195.168264 277.560098 
L 198.447603 273.904609 
L 201.726942 269.589945 
L 205.006281 264.533924 
L 208.28562 258.65911 
L 211.564959 251.899679 
L 214.844298 244.20983 
L 218.123636 235.573173 
L 221.402975 226.011987 
L 224.682314 215.594784 
L 227.961653 204.440315 
L 231.240992 192.716303 
L 234.520331 180.631902 
L 237.799669 168.424098 
L 241.079008 156.339697 
L 244.358347 144.615685 
L 247.637686 133.461216 
L 250.917025 123.044013 
L 254.196364 113.482827 
L 257.475702 104.84617 
L 260.755041 97.156321 
L 264.03438 90.39689 
L 267.313719 84.522076 
L 270.593058 79.466055 
L 273.872397 75.151391 
L 277.151736 71.495902 
L 280.431074 68.417801 
L 283.710413 65.839237 
L 286.989752 63.688467 
L 290.269091 61.900982 
L 293.54843 60.419872 
L 296.827769 59.195673 
L 300.107107 58.1859 
L 303.386446 57.354408 
L 306.665785 56.670675 
L 309.945124 56.10909 
L 313.224463 55.648267 
L 316.503802 55.270419 
L 319.78314 54.960803 
L 323.062479 54.707229 
L 326.341818 54.499642 
L 329.621157 54.329761 
L 332.900496 54.190777 
L 336.179835 54.077098 
L 339.459174 53.984133 
L 342.738512 53.90812 
L 346.017851 53.845976 
L 349.29719 53.795176 
L 352.576529 53.753653 
L 355.855868 53.719714 
L 359.135207 53.691977 
L 362.414545 53.669308 
L 365.693884 53.650783 
L 368.973223 53.635644 
L 372.252562 53.623274 
L 375.531901 53.613165 
L 378.81124 53.604904 
L 382.090579 53.598155 
L 385.369917 53.592639 
L 388.649256 53.588133 
L 391.928595 53.58445 
L 395.207934 53.581441 
L 398.487273 53.578983 
" clip-path="url(#p7344e03d59)" style="fill: none; stroke-dasharray: 5.55,2.4; stroke-dashoffset: 0; stroke: #ffa500; stroke-width: 1.5"/>
   </g>
   <g id="line2d_16">
    <path d="M 73.832727 174.506036 
L 77.112066 174.501119 
L 80.391405 174.495102 
L 83.670744 174.487738 
L 86.950083 174.478726 
L 90.229421 174.467698 
L 93.50876 174.454202 
L 96.788099 174.437687 
L 100.067438 174.417478 
L 103.346777 174.392749 
L 106.626116 174.362491 
L 109.905455 174.325469 
L 113.184793 174.280174 
L 116.464132 174.224762 
L 119.743471 174.15698 
L 123.02281 174.074074 
L 126.302149 173.972686 
L 129.581488 173.848716 
L 132.860826 173.697166 
L 136.140165 173.511948 
L 139.419504 173.285652 
L 142.698843 173.009275 
L 145.978182 172.671892 
L 149.257521 172.260272 
L 152.53686 171.758432 
L 155.816198 171.147122 
L 159.095537 170.403243 
L 162.374876 169.499202 
L 165.654215 168.402235 
L 168.933554 167.073711 
L 172.212893 165.468498 
L 175.492231 163.534483 
L 178.77157 161.212386 
L 182.050909 158.436099 
L 185.330248 155.133824 
L 188.609587 151.230427 
L 191.888926 146.651451 
L 195.168264 141.329353 
L 198.447603 135.212431 
L 201.726942 128.276774 
L 205.006281 120.541101 
L 208.28562 112.083572 
L 211.564959 103.058548 
L 214.844298 93.709844 
L 218.123636 84.375814 
L 221.402975 75.481036 
L 224.682314 67.510466 
L 227.961653 60.965045 
L 231.240992 56.302907 
L 234.520331 53.876016 
L 237.799669 53.876016 
L 241.079008 56.302907 
L 244.358347 60.965045 
L 247.637686 67.510466 
L 250.917025 75.481036 
L 254.196364 84.375814 
L 257.475702 93.709844 
L 260.755041 103.058548 
L 264.03438 112.083572 
L 267.313719 120.541101 
L 270.593058 128.276774 
L 273.872397 135.212431 
L 277.151736 141.329353 
L 280.431074 146.651451 
L 283.710413 151.230427 
L 286.989752 155.133824 
L 290.269091 158.436099 
L 293.54843 161.212386 
L 296.827769 163.534483 
L 300.107107 165.468498 
L 303.386446 167.073711 
L 306.665785 168.402235 
L 309.945124 169.499202 
L 313.224463 170.403243 
L 316.503802 171.147122 
L 319.78314 171.758432 
L 323.062479 172.260272 
L 326.341818 172.671892 
L 329.621157 173.009275 
L 332.900496 173.285652 
L 336.179835 173.511948 
L 339.459174 173.697166 
L 342.738512 173.848716 
L 346.017851 173.972686 
L 349.29719 174.074074 
L 352.576529 174.15698 
L 355.855868 174.224762 
L 359.135207 174.280174 
L 362.414545 174.325469 
L 365.693884 174.362491 
L 368.973223 174.392749 
L 372.252562 174.417478 
L 375.531901 174.437687 
L 378.81124 174.454202 
L 382.090579 174.467698 
L 385.369917 174.478726 
L 388.649256 174.487738 
L 391.928595 174.495102 
L 395.207934 174.501119 
L 398.487273 174.506036 
" clip-path="url(#p7344e03d59)" style="fill: none; stroke-dasharray: 5.55,2.4; stroke-dashoffset: 0; stroke: #00ffff; stroke-width: 1.5"/>
   </g>
   <g id="line2d_17">
    <path d="M 73.832727 174.528 
L 398.487273 174.528 
" clip-path="url(#p7344e03d59)" style="fill: none; stroke-dasharray: 3.7,1.6; stroke-dashoffset: 0; stroke: #000000"/>
   </g>
   <g id="line2d_18">
    <path d="M 236.16 295.488 
L 236.16 53.568 
" clip-path="url(#p7344e03d59)" style="fill: none; stroke-dasharray: 3.7,1.6; stroke-dashoffset: 0; stroke: #000000"/>
   </g>
   <g id="patch_3">
    <path d="M 57.6 307.584 
L 57.6 41.472 
" style="fill: none; stroke: #000000; stroke-width: 0.8; stroke-linejoin: miter; stroke-linecap: square"/>
   </g>
   <g id="patch_4">
    <path d="M 414.72 307.584 
L 414.72 41.472 
" style="fill: none; stroke: #000000; stroke-width: 0.8; stroke-linejoin: miter; stroke-linecap: square"/>
   </g>
   <g id="patch_5">
    <path d="M 57.6 307.584 
L 414.72 307.584 
" style="fill: none; stroke: #000000; stroke-width: 0.8; stroke-linejoin: miter; stroke-linecap: square"/>
   </g>
   <g id="patch_6">
    <path d="M 57.6 41.472 
L 414.72 41.472 
" style="fill: none; stroke: #000000; stroke-width: 0.8; stroke-linejoin: miter; stroke-linecap: square"/>
   </g>
   <g id="legend_1">
    <g id="patch_7">
     <path d="M 64.6 78.001688 
L 181.6 78.001688 
Q 183.6 78.001688 183.6 76.001688 
L 183.6 48.472 
Q 183.6 46.472 181.6 46.472 
L 64.6 46.472 
Q 62.6 46.472 62.6 48.472 
L 62.6 76.001688 
Q 62.6 78.001688 64.6 78.001688 
z
" style="fill: #ffffff; opacity: 0.8; stroke: #cccccc; stroke-linejoin: miter"/>
    </g>
    <g id="line2d_19">
     <path d="M 66.6 54.731375 
L 76.6 54.731375 
L 86.6 54.731375 
" style="fill: none; stroke-dasharray: 5.55,2.4; stroke-dashoffset: 0; stroke: #ffa500; stroke-width: 1.5"/>
    </g>
    <g id="text_17">
     <!-- 활성화 함수 -->
     <g transform="translate(94.6 58.231375) scale(0.1 -0.1)">
      <defs>
       <path id="D2Coding-d65c" d="M 672 3974 
L 672 4371 
L 4058 4371 
L 4058 3974 
L 672 3974 
z
M 1408 4653 
L 1408 5050 
L 3334 5050 
L 3334 4653 
L 1408 4653 
z
M 3712 3110 
Q 3712 2835 3440 2656 
Q 3168 2477 2630 2445 
L 2630 2080 
Q 3085 2099 3520 2131 
Q 3955 2163 4314 2214 
L 4314 1824 
Q 4006 1779 3638 1747 
Q 3270 1715 2883 1692 
Q 2496 1670 2112 1657 
Q 1728 1645 1389 1645 
L 442 1645 
L 442 2054 
L 1382 2054 
Q 1542 2054 1715 2054 
Q 1888 2054 2074 2061 
L 2074 2451 
Q 1542 2483 1273 2659 
Q 1005 2835 1005 3110 
Q 1005 3418 1344 3597 
Q 1683 3776 2362 3770 
Q 3034 3776 3373 3597 
Q 3712 3418 3712 3110 
z
M 3174 3104 
Q 3174 3226 2988 3318 
Q 2803 3411 2362 3411 
Q 1914 3411 1728 3318 
Q 1542 3226 1542 3104 
Q 1542 2989 1728 2896 
Q 1914 2803 2362 2803 
Q 2803 2803 2988 2896 
Q 3174 2989 3174 3104 
z
M 4595 1645 
L 4595 4992 
L 5146 4992 
L 5146 3347 
L 5990 3347 
L 5990 2861 
L 5146 2861 
L 5146 1645 
L 4595 1645 
z
M 5274 -787 
L 1440 -787 
L 1440 467 
L 4602 467 
L 4602 870 
L 1440 870 
L 1440 1306 
L 5146 1306 
L 5146 64 
L 1984 64 
L 1984 -352 
L 5274 -352 
L 5274 -787 
z
" transform="scale(0.015625)"/>
       <path id="D2Coding-c131" d="M 2682 4845 
Q 2688 4557 2656 4291 
Q 2624 4026 2560 3782 
Q 2829 3277 3203 2909 
Q 3578 2541 4115 2272 
L 3776 1882 
Q 3315 2118 2956 2457 
Q 2598 2797 2349 3213 
Q 2118 2726 1750 2352 
Q 1382 1978 902 1709 
L 525 2074 
Q 1350 2541 1756 3213 
Q 2163 3885 2112 4845 
L 2682 4845 
z
M 3610 3258 
L 3610 3744 
L 4794 3744 
L 4794 4992 
L 5344 4992 
L 5344 1491 
L 4794 1491 
L 4794 3258 
L 3610 3258 
z
M 5395 230 
Q 5395 -13 5273 -221 
Q 5152 -429 4909 -579 
Q 4666 -730 4301 -816 
Q 3936 -902 3456 -902 
Q 2976 -902 2614 -816 
Q 2253 -730 2009 -576 
Q 1766 -422 1644 -214 
Q 1523 -6 1523 237 
Q 1523 480 1644 688 
Q 1766 896 2009 1049 
Q 2253 1203 2614 1289 
Q 2976 1376 3456 1376 
Q 3936 1376 4301 1289 
Q 4666 1203 4909 1049 
Q 5152 896 5273 685 
Q 5395 474 5395 230 
z
M 4819 230 
Q 4819 365 4739 486 
Q 4659 608 4489 704 
Q 4320 800 4061 857 
Q 3802 915 3450 915 
Q 3104 915 2848 857 
Q 2592 800 2422 704 
Q 2253 608 2173 486 
Q 2093 365 2093 230 
Q 2093 102 2173 -19 
Q 2253 -141 2422 -233 
Q 2592 -326 2848 -380 
Q 3104 -435 3450 -435 
Q 3802 -435 4061 -380 
Q 4320 -326 4489 -233 
Q 4659 -141 4739 -19 
Q 4819 102 4819 230 
z
" transform="scale(0.015625)"/>
       <path id="D2Coding-d654" d="M 576 3552 
L 576 4006 
L 4096 4006 
L 4096 3552 
L 576 3552 
z
M 1325 4358 
L 1325 4826 
L 3277 4826 
L 3277 4358 
L 1325 4358 
z
M 3782 2266 
Q 3782 1875 3497 1596 
Q 3213 1318 2650 1254 
L 2650 646 
Q 3098 666 3530 694 
Q 3962 723 4314 774 
L 4314 320 
Q 4006 275 3638 243 
Q 3270 211 2883 188 
Q 2496 166 2112 153 
Q 1728 141 1389 141 
L 416 141 
L 416 614 
L 1382 614 
Q 1549 614 1725 617 
Q 1901 621 2093 627 
L 2093 1254 
Q 1510 1312 1222 1590 
Q 934 1869 934 2266 
Q 934 2483 1024 2668 
Q 1114 2854 1293 2992 
Q 1472 3130 1737 3206 
Q 2003 3283 2362 3283 
Q 2714 3283 2979 3206 
Q 3245 3130 3424 2992 
Q 3603 2854 3692 2668 
Q 3782 2483 3782 2266 
z
M 3226 2266 
Q 3226 2381 3178 2489 
Q 3130 2598 3024 2681 
Q 2918 2765 2755 2816 
Q 2592 2867 2362 2867 
Q 2131 2867 1964 2816 
Q 1798 2765 1692 2681 
Q 1587 2598 1539 2489 
Q 1491 2381 1491 2266 
Q 1491 2150 1539 2041 
Q 1587 1933 1692 1849 
Q 1798 1766 1964 1715 
Q 2131 1664 2362 1664 
Q 2592 1664 2755 1715 
Q 2918 1766 3024 1849 
Q 3130 1933 3178 2041 
Q 3226 2150 3226 2266 
z
M 6042 2029 
L 5114 2029 
L 5114 -851 
L 4582 -851 
L 4582 4992 
L 5114 4992 
L 5114 2502 
L 6042 2502 
L 6042 2029 
z
" transform="scale(0.015625)"/>
       <path id="D2Coding-20" transform="scale(0.015625)"/>
       <path id="D2Coding-d568" d="M 461 3808 
L 461 4237 
L 3930 4237 
L 3930 3808 
L 461 3808 
z
M 1248 4595 
L 1248 5024 
L 3187 5024 
L 3187 4595 
L 1248 4595 
z
M 2189 1568 
Q 1824 1568 1555 1648 
Q 1286 1728 1110 1862 
Q 934 1997 848 2176 
Q 762 2355 762 2554 
Q 762 2746 848 2918 
Q 934 3091 1110 3225 
Q 1286 3360 1555 3440 
Q 1824 3520 2189 3520 
Q 2554 3520 2822 3440 
Q 3091 3360 3267 3225 
Q 3443 3091 3529 2918 
Q 3616 2746 3616 2554 
Q 3616 2355 3529 2176 
Q 3443 1997 3267 1862 
Q 3091 1728 2822 1648 
Q 2554 1568 2189 1568 
z
M 2189 1997 
Q 2419 1997 2585 2041 
Q 2752 2086 2857 2163 
Q 2963 2240 3011 2339 
Q 3059 2438 3059 2547 
Q 3059 2650 3011 2752 
Q 2963 2854 2857 2934 
Q 2752 3014 2589 3062 
Q 2426 3110 2189 3110 
Q 1952 3110 1785 3062 
Q 1619 3014 1516 2934 
Q 1414 2854 1366 2752 
Q 1318 2650 1318 2547 
Q 1318 2438 1366 2339 
Q 1414 2240 1520 2163 
Q 1626 2086 1789 2041 
Q 1952 1997 2189 1997 
z
M 5990 2848 
L 5069 2848 
L 5069 1453 
L 4518 1453 
L 4518 4992 
L 5069 4992 
L 5069 3334 
L 5990 3334 
L 5990 2848 
z
M 5069 -762 
L 1472 -762 
L 1472 1126 
L 5069 1120 
L 5069 -762 
z
M 4518 646 
L 2022 653 
L 2022 -282 
L 4518 -282 
L 4518 646 
z
" transform="scale(0.015625)"/>
       <path id="D2Coding-c218" d="M 3629 4890 
Q 3642 4704 3600 4518 
Q 3558 4333 3482 4154 
Q 3616 3936 3846 3737 
Q 4077 3539 4365 3379 
Q 4653 3219 4973 3100 
Q 5293 2982 5600 2918 
L 5299 2464 
Q 4659 2611 4108 2940 
Q 3558 3270 3187 3686 
Q 3008 3456 2774 3254 
Q 2541 3053 2272 2889 
Q 2003 2726 1712 2601 
Q 1421 2477 1133 2400 
L 832 2842 
Q 1306 2957 1712 3161 
Q 2118 3366 2416 3635 
Q 2714 3904 2880 4224 
Q 3046 4544 3040 4890 
L 3629 4890 
z
M 480 1299 
L 480 1766 
L 5920 1766 
L 5920 1299 
L 3539 1299 
L 3539 -819 
L 2976 -819 
L 2976 1299 
L 480 1299 
z
" transform="scale(0.015625)"/>
      </defs>
      <use xlink:href="#D2Coding-d65c"/>
      <use xlink:href="#D2Coding-c131" x="99.999985"/>
      <use xlink:href="#D2Coding-d654" x="199.999969"/>
      <use xlink:href="#D2Coding-20" x="299.999954"/>
      <use xlink:href="#D2Coding-d568" x="349.999939"/>
      <use xlink:href="#D2Coding-c218" x="449.999924"/>
     </g>
    </g>
    <g id="line2d_20">
     <path d="M 66.6 68.961063 
L 76.6 68.961063 
L 86.6 68.961063 
" style="fill: none; stroke-dasharray: 5.55,2.4; stroke-dashoffset: 0; stroke: #00ffff; stroke-width: 1.5"/>
    </g>
    <g id="text_18">
     <!-- 미분 결과(도함수) -->
     <g transform="translate(94.6 72.461063) scale(0.1 -0.1)">
      <defs>
       <path id="D2Coding-bbf8" d="M 4794 4992 
L 5344 4992 
L 5344 -851 
L 4794 -851 
L 4794 4992 
z
M 3462 755 
L 851 755 
L 851 4493 
L 3462 4493 
L 3462 755 
z
M 2918 1222 
L 2918 4032 
L 1414 4032 
L 1414 1222 
L 2918 1222 
z
" transform="scale(0.015625)"/>
       <path id="D2Coding-bd84" d="M 4480 3738 
L 1914 3738 
L 1914 3072 
L 4480 3072 
L 4480 3738 
z
M 1344 2611 
L 1344 4954 
L 1926 4954 
L 1926 4205 
L 4480 4205 
L 4480 4954 
L 5050 4954 
L 5050 2611 
L 1344 2611 
z
M 3610 262 
L 3040 262 
L 3040 1542 
L 416 1542 
L 416 2016 
L 5984 2016 
L 5984 1542 
L 3610 1542 
L 3610 262 
z
M 5261 -762 
L 1325 -762 
L 1325 883 
L 1875 883 
L 1875 -282 
L 5261 -282 
L 5261 -762 
z
" transform="scale(0.015625)"/>
       <path id="D2Coding-acb0" d="M 3066 4288 
Q 2682 4275 2317 4272 
Q 1952 4269 1568 4269 
L 979 4269 
L 979 4736 
L 1946 4736 
Q 2394 4736 2829 4736 
Q 3264 4736 3718 4749 
Q 3680 4282 3481 3859 
Q 3283 3437 2934 3081 
Q 2586 2726 2102 2444 
Q 1619 2163 1018 1984 
L 710 2426 
Q 1658 2694 2266 3148 
Q 2874 3603 3066 4288 
z
M 4794 4134 
L 4794 4992 
L 5344 4992 
L 5344 2003 
L 4794 2003 
L 4794 2630 
L 3686 2630 
L 3686 3098 
L 4800 3098 
L 4800 3674 
L 3846 3674 
L 3846 4134 
L 4794 4134 
z
M 5472 -787 
L 1670 -787 
L 1670 678 
L 4800 678 
L 4800 1210 
L 1670 1210 
L 1670 1670 
L 5344 1670 
L 5344 230 
L 2214 230 
L 2214 -314 
L 5472 -314 
L 5472 -787 
z
" transform="scale(0.015625)"/>
       <path id="D2Coding-acfc" d="M 3475 1568 
L 2931 1568 
Q 3085 2150 3129 2777 
Q 3174 3405 3187 3981 
L 800 3981 
L 800 4454 
L 3738 4454 
Q 3731 4134 3718 3750 
Q 3706 3366 3677 2976 
Q 3648 2586 3600 2221 
Q 3552 1856 3475 1568 
z
M 6042 2208 
L 5114 2208 
L 5114 -851 
L 4582 -851 
L 4582 4992 
L 5114 4992 
L 5114 2682 
L 6042 2682 
L 6042 2208 
z
M 1619 454 
L 416 454 
L 416 928 
L 1760 928 
L 1760 2842 
L 2298 2842 
L 2298 934 
Q 2765 947 3257 972 
Q 3750 998 4294 1069 
L 4294 627 
Q 3987 582 3641 550 
Q 3296 518 2944 496 
Q 2592 474 2253 464 
Q 1914 454 1619 454 
z
" transform="scale(0.015625)"/>
       <path id="D2Coding-28" d="M 1389 2029 
Q 1389 1638 1481 1235 
Q 1574 832 1747 457 
Q 1920 83 2173 -246 
Q 2426 -576 2752 -819 
L 2752 -883 
L 2298 -883 
Q 1958 -653 1683 -329 
Q 1408 -6 1216 374 
Q 1024 755 918 1174 
Q 813 1594 813 2029 
Q 813 2451 918 2864 
Q 1024 3277 1216 3648 
Q 1408 4019 1683 4336 
Q 1958 4653 2298 4883 
L 2752 4883 
L 2752 4819 
Q 2426 4576 2173 4256 
Q 1920 3936 1747 3571 
Q 1574 3206 1481 2812 
Q 1389 2419 1389 2029 
z
" transform="scale(0.015625)"/>
       <path id="D2Coding-b3c4" d="M 1395 1766 
L 1395 4486 
L 5043 4486 
L 5043 4006 
L 1952 4006 
L 1952 2246 
L 5101 2246 
L 5101 1766 
L 3520 1766 
L 3520 486 
L 5920 486 
L 5920 19 
L 480 19 
L 480 486 
L 2957 486 
L 2957 1766 
L 1395 1766 
z
" transform="scale(0.015625)"/>
       <path id="D2Coding-29" d="M 1811 2029 
Q 1811 2419 1718 2812 
Q 1626 3206 1453 3571 
Q 1280 3936 1027 4256 
Q 774 4576 448 4819 
L 448 4883 
L 902 4883 
Q 1242 4653 1517 4336 
Q 1792 4019 1984 3648 
Q 2176 3277 2281 2864 
Q 2387 2451 2387 2029 
Q 2387 1594 2281 1174 
Q 2176 755 1984 374 
Q 1792 -6 1517 -329 
Q 1242 -653 902 -883 
L 448 -883 
L 448 -819 
Q 774 -576 1027 -246 
Q 1280 83 1453 457 
Q 1626 832 1718 1235 
Q 1811 1638 1811 2029 
z
" transform="scale(0.015625)"/>
      </defs>
      <use xlink:href="#D2Coding-bbf8"/>
      <use xlink:href="#D2Coding-bd84" x="99.999985"/>
      <use xlink:href="#D2Coding-20" x="199.999969"/>
      <use xlink:href="#D2Coding-acb0" x="249.999954"/>
      <use xlink:href="#D2Coding-acfc" x="349.999939"/>
      <use xlink:href="#D2Coding-28" x="449.999924"/>
      <use xlink:href="#D2Coding-b3c4" x="499.999908"/>
      <use xlink:href="#D2Coding-d568" x="599.999893"/>
      <use xlink:href="#D2Coding-c218" x="699.999878"/>
      <use xlink:href="#D2Coding-29" x="799.999863"/>
     </g>
    </g>
   </g>
  </g>
 </g>
 <defs>
  <clipPath id="p7344e03d59">
   <rect x="57.6" y="41.472" width="357.12" height="266.112"/>
  </clipPath>
 </defs>
</svg>
